<?xml version="1.0" encoding="UTF-8" standalone="no"?>
<!DOCTYPE svg PUBLIC "-//W3C//DTD SVG 1.1//EN"
 "http://www.w3.org/Graphics/SVG/1.1/DTD/svg11.dtd">
<!-- Generated by graphviz version 2.36.0 (20140111.2315)
 -->
<!-- Title: G Pages: 1 -->
<svg width="310pt" height="348pt"
 viewBox="0.00 0.00 310.00 348.00" xmlns="http://www.w3.org/2000/svg" xmlns:xlink="http://www.w3.org/1999/xlink">
<g id="graph0" class="graph" transform="scale(1 1) rotate(0) translate(4 344)">
<title>G</title>
<polygon fill="white" stroke="none" points="-4,4 -4,-344 306,-344 306,4 -4,4"/>
<g id="clust1" class="cluster"><title>cluster_Global</title>
<path fill="none" stroke="gray" d="M20,-8C20,-8 282,-8 282,-8 288,-8 294,-14 294,-20 294,-20 294,-320 294,-320 294,-326 288,-332 282,-332 282,-332 20,-332 20,-332 14,-332 8,-326 8,-320 8,-320 8,-20 8,-20 8,-14 14,-8 20,-8"/>
<text text-anchor="middle" x="151" y="-319.2" font-family="Times,serif" font-size="11.00" fill="gray">Global</text>
</g>
<g id="clust2" class="cluster"><title>cluster_\local_resourceexporter</title>
<path fill="none" stroke="gray" d="M28,-16C28,-16 274,-16 274,-16 280,-16 286,-22 286,-28 286,-28 286,-292 286,-292 286,-298 280,-304 274,-304 274,-304 28,-304 28,-304 22,-304 16,-298 16,-292 16,-292 16,-28 16,-28 16,-22 22,-16 28,-16"/>
<text text-anchor="middle" x="151" y="-291.2" font-family="Times,serif" font-size="11.00" fill="gray">local_resourceexporter</text>
</g>
<!-- \\local_resourceexporter\\downloader -->
<g id="node1" class="node"><title>\\local_resourceexporter\\downloader</title>
<polygon fill="none" stroke="black" points="271,-276 187,-276 187,-240 271,-240 271,-276"/>
<text text-anchor="middle" x="229" y="-255.2" font-family="Courier,monospace" font-size="11.00">downloader</text>
</g>
<!-- \\local_resourceexporter\\resource -->
<g id="node2" class="node"><title>\\local_resourceexporter\\resource</title>
<polygon fill="none" stroke="black" points="108,-168 24,-168 24,-132 108,-132 108,-168"/>
<text text-anchor="start" x="32" y="-153.2" font-family="Courier,monospace" font-size="11.00">«abstract»</text>
<text text-anchor="start" x="38.5" y="-141.2" font-family="Courier,monospace" font-size="11.00">resource</text>
</g>
<!-- \\local_resourceexporter\\file -->
<g id="node3" class="node"><title>\\local_resourceexporter\\file</title>
<polygon fill="none" stroke="black" points="256,-222 202,-222 202,-186 256,-186 256,-222"/>
<text text-anchor="middle" x="229" y="-201.2" font-family="Courier,monospace" font-size="11.00">file</text>
</g>
<!-- \\local_resourceexporter\\file&#45;&gt;\\local_resourceexporter\\resource -->
<g id="edge1" class="edge"><title>\\local_resourceexporter\\file&#45;&gt;\\local_resourceexporter\\resource</title>
<path fill="none" stroke="black" d="M201.774,-195.204C179.058,-187.585 145.549,-176.345 117.627,-166.98"/>
<polygon fill="none" stroke="black" points="118.604,-163.617 108.01,-163.755 116.378,-170.253 118.604,-163.617"/>
</g>
<!-- \\local_resourceexporter\\url -->
<g id="node4" class="node"><title>\\local_resourceexporter\\url</title>
<polygon fill="none" stroke="black" points="256,-168 202,-168 202,-132 256,-132 256,-168"/>
<text text-anchor="middle" x="229" y="-147.2" font-family="Courier,monospace" font-size="11.00">url</text>
</g>
<!-- \\local_resourceexporter\\url&#45;&gt;\\local_resourceexporter\\resource -->
<g id="edge2" class="edge"><title>\\local_resourceexporter\\url&#45;&gt;\\local_resourceexporter\\resource</title>
<path fill="none" stroke="black" d="M201.774,-150C179.256,-150 146.133,-150 118.36,-150"/>
<polygon fill="none" stroke="black" points="118.01,-146.5 108.01,-150 118.01,-153.5 118.01,-146.5"/>
</g>
<!-- \\local_resourceexporter\\folder -->
<g id="node5" class="node"><title>\\local_resourceexporter\\folder</title>
<polygon fill="none" stroke="black" points="257.5,-114 200.5,-114 200.5,-78 257.5,-78 257.5,-114"/>
<text text-anchor="middle" x="229" y="-93.2" font-family="Courier,monospace" font-size="11.00">folder</text>
</g>
<!-- \\local_resourceexporter\\folder&#45;&gt;\\local_resourceexporter\\resource -->
<g id="edge3" class="edge"><title>\\local_resourceexporter\\folder&#45;&gt;\\local_resourceexporter\\resource</title>
<path fill="none" stroke="black" d="M200.323,-105.283C177.742,-112.857 145.234,-123.76 117.971,-132.904"/>
<polygon fill="none" stroke="black" points="116.56,-129.686 108.192,-136.184 118.786,-136.322 116.56,-129.686"/>
</g>
<!-- \\local_resourceexporter\\file_handler -->
<g id="node6" class="node"><title>\\local_resourceexporter\\file_handler</title>
<polygon fill="none" stroke="black" points="278,-60 180,-60 180,-24 278,-24 278,-60"/>
<text text-anchor="middle" x="229" y="-39.2" font-family="Courier,monospace" font-size="11.00">file_handler</text>
</g>
</g>
</svg>
